<mxfile host="app.diagrams.net" modified="2021-12-27T04:48:14.950Z" agent="5.0 (Windows NT 10.0; Win64; x64) AppleWebKit/537.36 (KHTML, like Gecko) Chrome/90.0.4430.72 Safari/537.36" etag="B6RjL95vt6w6vZXwOizu" version="16.1.0" type="github">
  <diagram id="XZ3qL6EtdCwVyzF2ZRg6" name="Page-1">
    <mxGraphModel dx="2499" dy="821" grid="1" gridSize="10" guides="1" tooltips="1" connect="1" arrows="1" fold="1" page="1" pageScale="1" pageWidth="850" pageHeight="1100" math="0" shadow="0">
      <root>
        <mxCell id="0" />
        <mxCell id="1" parent="0" />
        <mxCell id="aNXheSGr7ayVwAfQVtg4-3" value="" style="edgeStyle=orthogonalEdgeStyle;rounded=0;orthogonalLoop=1;jettySize=auto;html=1;startArrow=none;exitX=0.5;exitY=1;exitDx=0;exitDy=0;" parent="1" source="aNXheSGr7ayVwAfQVtg4-1" target="aNXheSGr7ayVwAfQVtg4-2" edge="1">
          <mxGeometry relative="1" as="geometry">
            <mxPoint x="-390" y="90" as="sourcePoint" />
          </mxGeometry>
        </mxCell>
        <mxCell id="aNXheSGr7ayVwAfQVtg4-1" value="前端" style="rounded=0;whiteSpace=wrap;html=1;" parent="1" vertex="1">
          <mxGeometry x="-820" y="40" width="500" height="60" as="geometry" />
        </mxCell>
        <mxCell id="aNXheSGr7ayVwAfQVtg4-7" value="" style="edgeStyle=orthogonalEdgeStyle;rounded=0;orthogonalLoop=1;jettySize=auto;html=1;" parent="1" source="aNXheSGr7ayVwAfQVtg4-2" target="aNXheSGr7ayVwAfQVtg4-6" edge="1">
          <mxGeometry relative="1" as="geometry" />
        </mxCell>
        <mxCell id="aNXheSGr7ayVwAfQVtg4-2" value="HomePageFeedNodeServer&lt;br&gt;taf nodejs" style="rounded=0;whiteSpace=wrap;html=1;" parent="1" vertex="1">
          <mxGeometry x="-830" y="150" width="520" height="60" as="geometry" />
        </mxCell>
        <mxCell id="aNXheSGr7ayVwAfQVtg4-9" value="" style="edgeStyle=orthogonalEdgeStyle;rounded=0;orthogonalLoop=1;jettySize=auto;html=1;" parent="1" source="aNXheSGr7ayVwAfQVtg4-6" target="aNXheSGr7ayVwAfQVtg4-8" edge="1">
          <mxGeometry relative="1" as="geometry" />
        </mxCell>
        <mxCell id="aNXheSGr7ayVwAfQVtg4-6" value="&lt;div&gt;&lt;br&gt;&lt;/div&gt;&lt;div&gt;&amp;nbsp;TagRecommendationUnifyProxyServer&lt;/div&gt;&lt;div&gt;taf C++&lt;/div&gt;&lt;div&gt;功能逻辑&lt;/div&gt;" style="whiteSpace=wrap;html=1;rounded=0;" parent="1" vertex="1">
          <mxGeometry x="-830" y="260" width="520" height="60" as="geometry" />
        </mxCell>
        <mxCell id="koJOCGhgzp4sdrUsIHKd-6" value=":Object" style="shape=umlLifeline;perimeter=lifelinePerimeter;whiteSpace=wrap;html=1;container=1;collapsible=0;recursiveResize=0;outlineConnect=0;dashed=1;" vertex="1" parent="1">
          <mxGeometry x="1010" y="460" width="100" height="300" as="geometry" />
        </mxCell>
        <mxCell id="koJOCGhgzp4sdrUsIHKd-9" style="edgeStyle=orthogonalEdgeStyle;rounded=0;orthogonalLoop=1;jettySize=auto;html=1;entryX=0.5;entryY=1;entryDx=0;entryDy=0;" edge="1" parent="1" source="koJOCGhgzp4sdrUsIHKd-8" target="aNXheSGr7ayVwAfQVtg4-6">
          <mxGeometry relative="1" as="geometry" />
        </mxCell>
        <mxCell id="koJOCGhgzp4sdrUsIHKd-8" value="推荐数据获取" style="shape=umlLifeline;perimeter=lifelinePerimeter;whiteSpace=wrap;html=1;container=1;collapsible=0;recursiveResize=0;outlineConnect=0;dashed=1;" vertex="1" parent="1">
          <mxGeometry x="-290" y="340" width="650" height="1220" as="geometry" />
        </mxCell>
        <mxCell id="koJOCGhgzp4sdrUsIHKd-4" value="" style="group" vertex="1" connectable="0" parent="koJOCGhgzp4sdrUsIHKd-8">
          <mxGeometry x="10" y="90" width="630" height="540" as="geometry" />
        </mxCell>
        <mxCell id="koJOCGhgzp4sdrUsIHKd-2" value="" style="rounded=1;whiteSpace=wrap;html=1;dashed=1;fillColor=#f5f5f5;strokeColor=#666666;fontColor=#333333;" vertex="1" parent="koJOCGhgzp4sdrUsIHKd-4">
          <mxGeometry width="630" height="540" as="geometry" />
        </mxCell>
        <mxCell id="koJOCGhgzp4sdrUsIHKd-1" value="" style="group" vertex="1" connectable="0" parent="koJOCGhgzp4sdrUsIHKd-4">
          <mxGeometry x="40" y="30" width="520" height="450" as="geometry" />
        </mxCell>
        <mxCell id="aNXheSGr7ayVwAfQVtg4-8" value="QBNewsMergeServer&lt;br&gt;taf C++&lt;br&gt;用户历史、对接推荐" style="whiteSpace=wrap;html=1;fillColor=rgb(255, 255, 255);strokeColor=rgb(0, 0, 0);fontColor=rgb(0, 0, 0);rounded=0;" parent="koJOCGhgzp4sdrUsIHKd-1" vertex="1">
          <mxGeometry x="175" width="210" height="60" as="geometry" />
        </mxCell>
        <mxCell id="aNXheSGr7ayVwAfQVtg4-10" value="HomepageFeedsAdsMergeServer&lt;br&gt;商业混排" style="whiteSpace=wrap;html=1;fillColor=rgb(255, 255, 255);strokeColor=rgb(0, 0, 0);fontColor=rgb(0, 0, 0);rounded=0;" parent="koJOCGhgzp4sdrUsIHKd-1" vertex="1">
          <mxGeometry x="140" y="110" width="280" height="60" as="geometry" />
        </mxCell>
        <mxCell id="aNXheSGr7ayVwAfQVtg4-11" value="" style="edgeStyle=orthogonalEdgeStyle;rounded=0;orthogonalLoop=1;jettySize=auto;html=1;" parent="koJOCGhgzp4sdrUsIHKd-1" source="aNXheSGr7ayVwAfQVtg4-8" target="aNXheSGr7ayVwAfQVtg4-10" edge="1">
          <mxGeometry relative="1" as="geometry" />
        </mxCell>
        <mxCell id="aNXheSGr7ayVwAfQVtg4-12" value="NewsRecommendationServer&lt;br&gt;M6" style="whiteSpace=wrap;html=1;fillColor=rgb(255, 255, 255);strokeColor=rgb(0, 0, 0);fontColor=rgb(0, 0, 0);rounded=0;" parent="koJOCGhgzp4sdrUsIHKd-1" vertex="1">
          <mxGeometry x="30" y="260" width="210" height="60" as="geometry" />
        </mxCell>
        <mxCell id="aNXheSGr7ayVwAfQVtg4-13" value="" style="edgeStyle=orthogonalEdgeStyle;rounded=0;orthogonalLoop=1;jettySize=auto;html=1;" parent="koJOCGhgzp4sdrUsIHKd-1" source="aNXheSGr7ayVwAfQVtg4-10" target="aNXheSGr7ayVwAfQVtg4-12" edge="1">
          <mxGeometry relative="1" as="geometry" />
        </mxCell>
        <mxCell id="aNXheSGr7ayVwAfQVtg4-14" value="推荐其它模块" style="whiteSpace=wrap;html=1;fillColor=rgb(255, 255, 255);strokeColor=rgb(0, 0, 0);fontColor=rgb(0, 0, 0);rounded=0;" parent="koJOCGhgzp4sdrUsIHKd-1" vertex="1">
          <mxGeometry y="390" width="120" height="60" as="geometry" />
        </mxCell>
        <mxCell id="aNXheSGr7ayVwAfQVtg4-15" value="" style="edgeStyle=orthogonalEdgeStyle;rounded=0;orthogonalLoop=1;jettySize=auto;html=1;" parent="koJOCGhgzp4sdrUsIHKd-1" source="aNXheSGr7ayVwAfQVtg4-12" target="aNXheSGr7ayVwAfQVtg4-14" edge="1">
          <mxGeometry relative="1" as="geometry" />
        </mxCell>
        <mxCell id="aNXheSGr7ayVwAfQVtg4-16" value="人工运营" style="whiteSpace=wrap;html=1;fillColor=rgb(255, 255, 255);strokeColor=rgb(0, 0, 0);fontColor=rgb(0, 0, 0);rounded=0;" parent="koJOCGhgzp4sdrUsIHKd-1" vertex="1">
          <mxGeometry x="150" y="390" width="120" height="60" as="geometry" />
        </mxCell>
        <mxCell id="aNXheSGr7ayVwAfQVtg4-17" value="" style="edgeStyle=orthogonalEdgeStyle;rounded=0;orthogonalLoop=1;jettySize=auto;html=1;exitX=0.5;exitY=1;exitDx=0;exitDy=0;" parent="koJOCGhgzp4sdrUsIHKd-1" source="aNXheSGr7ayVwAfQVtg4-12" target="aNXheSGr7ayVwAfQVtg4-16" edge="1">
          <mxGeometry relative="1" as="geometry" />
        </mxCell>
        <mxCell id="aNXheSGr7ayVwAfQVtg4-18" value="广告&lt;br&gt;商业化&lt;br&gt;测试环境区别:unify直接调广告" style="whiteSpace=wrap;html=1;fillColor=rgb(255, 255, 255);strokeColor=rgb(0, 0, 0);fontColor=rgb(0, 0, 0);rounded=0;" parent="koJOCGhgzp4sdrUsIHKd-1" vertex="1">
          <mxGeometry x="330" y="260" width="190" height="60" as="geometry" />
        </mxCell>
        <mxCell id="aNXheSGr7ayVwAfQVtg4-19" value="" style="edgeStyle=orthogonalEdgeStyle;rounded=0;orthogonalLoop=1;jettySize=auto;html=1;" parent="koJOCGhgzp4sdrUsIHKd-1" source="aNXheSGr7ayVwAfQVtg4-10" target="aNXheSGr7ayVwAfQVtg4-18" edge="1">
          <mxGeometry relative="1" as="geometry" />
        </mxCell>
        <mxCell id="koJOCGhgzp4sdrUsIHKd-3" value="推荐内容获取&lt;br&gt;图文视频、人工运营、广告" style="text;html=1;strokeColor=none;fillColor=none;align=center;verticalAlign=middle;whiteSpace=wrap;rounded=0;dashed=1;" vertex="1" parent="koJOCGhgzp4sdrUsIHKd-4">
          <mxGeometry x="20" y="10" width="180" height="30" as="geometry" />
        </mxCell>
      </root>
    </mxGraphModel>
  </diagram>
</mxfile>
